<?xml version="1.0" encoding="UTF-8" standalone="no"?>
<!-- Created with Inkscape (http://www.inkscape.org/) -->
<svg
   xmlns:dc="http://purl.org/dc/elements/1.1/"
   xmlns:cc="http://creativecommons.org/ns#"
   xmlns:rdf="http://www.w3.org/1999/02/22-rdf-syntax-ns#"
   xmlns:svg="http://www.w3.org/2000/svg"
   xmlns="http://www.w3.org/2000/svg"
   xmlns:sodipodi="http://sodipodi.sourceforge.net/DTD/sodipodi-0.dtd"
   xmlns:inkscape="http://www.inkscape.org/namespaces/inkscape"
   version="1.0"
   width="320"
   height="320"
   id="svg2"
   sodipodi:version="0.32"
   inkscape:version="0.46"
   sodipodi:docname="Cardinal_Pillar_South.svg"
   inkscape:output_extension="org.inkscape.output.svg.inkscape">
  <metadata
     id="metadata7">
    <rdf:RDF>
      <cc:Work
         rdf:about="">
        <dc:format>image/svg+xml</dc:format>
        <dc:type
           rdf:resource="http://purl.org/dc/dcmitype/StillImage" />
      </cc:Work>
    </rdf:RDF>
  </metadata>
  <sodipodi:namedview
     inkscape:window-height="735"
     inkscape:window-width="950"
     inkscape:pageshadow="2"
     inkscape:pageopacity="0.0"
     guidetolerance="10.0"
     gridtolerance="10.0"
     objecttolerance="10.0"
     borderopacity="1.0"
     bordercolor="#666666"
     pagecolor="#ffffff"
     id="base"
     showgrid="false"
     inkscape:zoom="1.325"
     inkscape:cx="200"
     inkscape:cy="113.8851"
     inkscape:window-x="480"
     inkscape:window-y="100"
     inkscape:current-layer="svg2" />
  <defs
     id="defs4">
    <inkscape:perspective
       sodipodi:type="inkscape:persp3d"
       inkscape:vp_x="0 : 200 : 1"
       inkscape:vp_y="0 : 1000 : 0"
       inkscape:vp_z="400 : 200 : 1"
       inkscape:persp3d-origin="200 : 133.33333 : 1"
       id="perspective9" />
  </defs>
  <path
     d="M 195.01014,75.949591 L 189.41639,92.668341 L 182.88514,90.574591 L 152.41639,158.63709 L 122.63514,191.23084 L 114.85389,191.23084 L 114.72889,196.88709 L 145.79139,196.88709 C 147.07871,202.42004 152.02466,206.54333 157.94764,206.54334 C 163.87259,206.54334 168.81859,202.42282 170.10389,196.88709 L 194.22889,196.88709 L 194.22889,191.23084 L 186.44764,191.23084 L 183.97889,168.88709 L 190.03454,142.43346 L 200.60389,96.262091 L 193.44764,93.980841 L 199.04139,77.293341 L 195.01014,75.949591 z M 187.13514,99.074591 L 192.10389,100.85584 L 176.88514,168.88709 L 179.35389,191.23084 L 170.10389,191.23084 C 168.82138,185.69128 163.87531,181.54334 157.94764,181.54334 C 152.02188,181.54334 147.07586,185.69397 145.79139,191.23084 L 132.19764,191.23084 L 158.44764,162.85584 L 187.13514,99.074591 z M 165.43514,194.05584 C 165.43514,198.19584 162.07514,201.55584 157.93514,201.55584 C 153.79514,201.55584 150.43514,198.19584 150.43514,194.05584 C 150.43514,189.91584 153.79514,186.55584 157.93514,186.55584 C 162.07514,186.55584 165.43514,189.91584 165.43514,194.05584 z M 198.11639,73.268246 L 193.32889,37.293246 L 223.91639,47.530846 L 198.11639,73.268246 z M 209.97264,39.093837 L 204.84764,3.0188679 L 235.76014,13.343867 L 209.97264,39.093837 z"
     id="path27763"
     style="fill:#000407;fill-opacity:1;fill-rule:evenodd;stroke:none"
     sodipodi:nodetypes="ccccccccscccccccccccccccscccccsssccccccccc" />
  <path
     style="fill:none;fill-rule:evenodd;stroke:#000000;stroke-width:1px;stroke-linecap:butt;stroke-linejoin:miter;stroke-opacity:1"
     d="M 157.73585,159.24528 L 181.13208,169.81132"
     id="path2381" />
  <path
     style="fill:#000000;fill-opacity:1;fill-rule:evenodd"
     d="M 134.97117,188.9434 C 135.79532,188.00943 140.86536,182.49057 146.23789,176.67925 C 151.61049,170.86792 156.91457,165.01217 158.02475,163.66645 L 160.04325,161.21966 L 168.96506,161.88146 L 177.88679,165.5621 L 177.20694,175.27162 C 177.6634,178.95147 178.26068,183.91509 178.53442,186.30189 L 179.03208,190.64151 L 174.57102,190.64151 C 170.3126,190.64151 170.07479,190.54066 169.33608,188.42174 C 168.91049,187.20088 167.12823,185.16313 165.37547,183.89343 C 162.70823,181.9613 161.48725,181.58491 157.88679,181.58491 C 154.34332,181.58491 153.05532,181.96855 150.58091,183.76106 C 148.9286,184.95792 147.13834,186.99568 146.60249,188.28936 L 145.62823,190.64151 L 139.55049,190.64151 L 133.47275,190.64151 L 134.97117,188.9434 z"
     id="path2383"
     sodipodi:nodetypes="csccccccccssssccccc" />
  <path
     style="fill:#ffcc00;fill-opacity:1;fill-rule:evenodd"
     d="M 167.91192,162.9526 C 161.53789,160.10275 160.3126,159.29286 160.8443,158.28085 C 161.54113,156.95441 184.60196,105.76405 186.27336,101.83352 C 187.24128,99.557404 187.40287,99.482875 189.58506,100.30655 C 190.84687,100.78282 191.74928,101.52 191.59042,101.94473 C 191.43162,102.36946 188.11351,117.06392 184.21691,134.59906 C 180.32015,152.1342 176.79245,166.46291 176.37736,166.44062 C 175.96226,166.41831 172.15283,164.84872 167.91192,162.95259 L 167.91192,162.9526 z"
     id="path2385" />
</svg>
