<?xml version="1.0" encoding="UTF-8" standalone="no"?>
<!DOCTYPE svg PUBLIC "-//W3C//DTD SVG 1.1//EN" "http://www.w3.org/Graphics/SVG/1.1/DTD/svg11.dtd">
<svg width="100%" height="100%" viewBox="0 0 300 300" version="1.1" xmlns="http://www.w3.org/2000/svg" xmlns:xlink="http://www.w3.org/1999/xlink" xml:space="preserve" xmlns:serif="http://www.serif.com/" style="fill-rule:evenodd;clip-rule:evenodd;stroke-linejoin:round;stroke-miterlimit:2;">
    <g id="path7832" transform="matrix(1,0,0,1,139.689,73.8256)">
        <path d="M0,76.197L0,71.597L7.8,71.235L7.8,0.01L12.762,0.01L12.762,71.235L20.55,71.235L20.55,76.197L0,76.197" style="fill:rgb(0,4,7);"/>
    </g>
    <g id="rect2983" transform="matrix(1,0,0,1,139.975,74.2278)">
        <rect x="7.758" y="-0.212" width="5.027" height="36.929" style="fill:rgb(255,205,0);"/>
    </g>
    <g transform="matrix(0.47537,0,0,0.47537,80.5235,34.1849)">
        <g id="path2987" transform="matrix(1,0,0,1,130.317,0)">
            <path d="M16.802,63.528L1.293,33.372L16.974,33.544L15.94,30.442L1.81,0.976L31.793,1.32L17.491,30.615L16.285,33.716L31.621,33.544L16.802,63.528Z" style="fill-rule:nonzero;"/>
        </g>
        <g id="path4" transform="matrix(1,0,0,1,130.317,0)">
            <path d="M0,0C0.194,0.24 10.506,21.789 15.75,32.5L0.031,32.5C0.138,32.538 15.017,62.954 16.156,65.281L14.594,65.281L14.594,83L18.844,83L18.844,65.281L17.406,65.281C18.545,62.953 33.448,32.469 33.625,32.5C33.415,32.469 17.781,32.5 17.781,32.5C23.222,21.869 33.813,0.288 33.656,0L0,0ZM3.313,2L30.313,2L16.813,30L3.313,2ZM3.313,34.5L30.313,34.5L16.813,62L3.313,34.5Z" style="fill-rule:nonzero;"/>
        </g>
    </g>
</svg>
