<?xml version="1.0" encoding="UTF-8" standalone="no"?>
<!DOCTYPE svg PUBLIC "-//W3C//DTD SVG 1.1//EN" "http://www.w3.org/Graphics/SVG/1.1/DTD/svg11.dtd">
<svg width="100%" height="100%" viewBox="0 0 300 400" version="1.1" xmlns="http://www.w3.org/2000/svg" xmlns:xlink="http://www.w3.org/1999/xlink" xml:space="preserve" xmlns:serif="http://www.serif.com/" style="fill-rule:evenodd;clip-rule:evenodd;stroke-linejoin:round;stroke-miterlimit:2;">
    <g id="light">
    </g>
    <g transform="matrix(-0.446844,0.894612,-0.894612,-0.446844,396.331,155.503)">
        <g id="light1" serif:id="light">
            <path d="M150.694,173.393L134.428,101.649L133.25,96.39L133.347,91.155L135.313,86.114L138.781,81.855L143.299,78.913L148.524,77.547L154.059,77.903L159.244,79.871L163.276,83.206L165.59,87.645L166.579,92.817L166.844,98.372L166.855,99.503L150.694,173.393L150.694,173.393ZM152.546,201.616C151.654,203.011 149.798,203.42 148.403,202.528C147.008,201.636 146.599,199.779 147.491,198.384C148.383,196.989 150.24,196.58 151.635,197.472C153.03,198.364 153.438,200.221 152.546,201.616Z" style="fill:rgb(0,255,0);"/>
        </g>
    </g>
</svg>
