<?xml version="1.0" encoding="UTF-8" standalone="no"?>
<!DOCTYPE svg PUBLIC "-//W3C//DTD SVG 1.1//EN" "http://www.w3.org/Graphics/SVG/1.1/DTD/svg11.dtd">
<svg width="100%" height="100%" viewBox="0 0 300 300" version="1.1" xmlns="http://www.w3.org/2000/svg" xmlns:xlink="http://www.w3.org/1999/xlink" xml:space="preserve" xmlns:serif="http://www.serif.com/" style="fill-rule:evenodd;clip-rule:evenodd;stroke-linejoin:round;stroke-miterlimit:2;">
    <g id="path7832" transform="matrix(1,0,0,1,139.689,73.8256)">
        <path d="M0,76.197L0,71.597L7.8,71.235L7.8,0.01L12.762,0.01L12.762,71.235L20.55,71.235L20.55,76.197L0,76.197" style="fill:rgb(0,4,7);"/>
    </g>
    <g transform="matrix(1,0,0,1,139.896,108.512)">
        <g id="rect2983">
            <rect x="7.758" y="-0.212" width="5.027" height="36.929" style="fill:rgb(255,205,0);"/>
        </g>
    </g>
    <g transform="matrix(0.46758,0,0,0.46758,80.6883,34.4616)">
        <g id="path2987" transform="matrix(1,0,0,1,131.703,0)">
            <path d="M17.625,2.531L1.813,33.156L16.5,33.094L16.563,36.25L1.969,65.313L32.781,65.469L17.438,35.125L17.406,33.063L32.438,33L17.625,2.531Z" style="fill-rule:nonzero;"/>
        </g>
        <g id="path4" transform="matrix(1,0,0,1,131.703,0)">
            <path d="M17.094,0C17.094,0.125 5.989,21.516 0.094,34.188C5.344,34.188 10.813,34.219 16.063,34.219C10.591,44.866 5.537,55.887 0,66.5L14.938,66.5L14.938,84L19.188,84L19.188,66.5L34.219,66.5C28.839,55.805 23.506,44.929 18.156,34.219L34.219,34.219C28.153,20.755 17.094,0.125 17.094,0ZM17.094,4.2L31.094,32.188L3.094,32.188L17.094,4.2ZM17.094,36.5L31.094,64.5L3.094,64.5L17.094,36.5Z" style="fill-rule:nonzero;"/>
        </g>
    </g>
</svg>
