<?xml version="1.0" encoding="UTF-8" standalone="no"?>
<!DOCTYPE svg PUBLIC "-//W3C//DTD SVG 1.1//EN" "http://www.w3.org/Graphics/SVG/1.1/DTD/svg11.dtd">
<svg width="100%" height="100%" viewBox="0 0 320 320" version="1.1" xmlns="http://www.w3.org/2000/svg" xmlns:xlink="http://www.w3.org/1999/xlink" xml:space="preserve" xmlns:serif="http://www.serif.com/" style="fill-rule:evenodd;clip-rule:evenodd;">
    <g id="path27763" transform="matrix(1,0,0,1,-40,-40)">
        <path d="M237.406,80.5L231.469,98.625L227.219,97.219L197.125,187.844C192.536,188.942 188.912,192.584 187.844,197.188L179.406,197.188L179.281,202.844L187.844,202.844C189.131,208.377 194.077,212.5 200,212.5C205.925,212.5 210.871,208.379 212.156,202.844L220.481,202.8L220.481,197.144L212.156,197.188C211.667,195.073 210.658,193.149 209.25,191.594L239.25,101.125L235.5,99.938L241.781,81.969L237.406,80.5ZM200,192.5C204.14,192.5 207.5,195.86 207.5,200C207.5,204.14 204.14,207.5 200,207.5C195.86,207.5 192.5,204.14 192.5,200C192.5,195.86 195.86,192.5 200,192.5Z" style="fill:rgb(0,4,7);"/>
    </g>
    <path id="path2382" d="M157.244,171.845C153.943,171.065 150.711,168.506 149.272,165.534L147.938,162.777L139.592,162.777L139.592,157.343L143.811,157.343C147.996,157.343 148.036,157.328 148.863,155.381C149.975,152.764 152.211,150.463 155.063,149L157.404,147.8L172.404,102.738C186.733,59.688 187.461,57.694 188.705,58.09C191.503,58.982 191.629,58.806 194.658,49.765L197.626,40.903L199.402,41.522C200.378,41.862 201.177,42.288 201.177,42.468C201.177,42.781 196.273,56.964 195.458,59.007C195.168,59.734 195.567,60.167 196.982,60.66C198.251,61.102 198.786,61.618 198.567,62.188C198.386,62.661 191.682,82.915 183.671,107.196L169.105,151.344L170.5,154.319L171.894,157.294L175.97,157.319L180.045,157.343L180.045,162.777L175.884,162.777C171.958,162.777 171.702,162.862 171.347,164.276C170.829,166.342 167.758,169.705 165.4,170.79C162.76,172.004 159.631,172.409 157.244,171.845L157.244,171.845ZM163.684,166.733C168.328,164.331 169.034,158.447 165.143,154.557C163.368,152.781 162.705,152.513 160.092,152.513C157.54,152.513 156.759,152.811 154.943,154.476C148.399,160.473 155.778,170.821 163.684,166.733L163.684,166.733Z" style="fill:rgb(212,0,0);stroke:black;stroke-width:0.6px;"/>
    <g id="path23821" serif:id="path2382" transform="matrix(0.950635,0.31031,-0.31031,0.950635,66.9208,-70.1702)">
        <rect x="146.234" y="30.189" width="27.774" height="34.415" style="fill:rgb(212,0,0);stroke:black;stroke-width:0.6px;"/>
    </g>
</svg>
