<?xml version="1.0" encoding="UTF-8" standalone="no"?>
<!-- Generator: Adobe Illustrator 14.0.0, SVG Export Plug-In . SVG Version: 6.00 Build 43363)  -->
<svg
   xmlns:dc="http://purl.org/dc/elements/1.1/"
   xmlns:cc="http://creativecommons.org/ns#"
   xmlns:rdf="http://www.w3.org/1999/02/22-rdf-syntax-ns#"
   xmlns:svg="http://www.w3.org/2000/svg"
   xmlns="http://www.w3.org/2000/svg"
   xmlns:sodipodi="http://sodipodi.sourceforge.net/DTD/sodipodi-0.dtd"
   xmlns:inkscape="http://www.inkscape.org/namespaces/inkscape"
   version="1.1"
   baseProfile="basic"
   id="svg2"
   sodipodi:version="0.32"
   inkscape:version="0.46"
   sodipodi:docname="Cardinal_Pillar_Single.svg"
   inkscape:output_extension="org.inkscape.output.svg.inkscape"
   x="0px"
   y="0px"
   width="320px"
   height="320px"
   viewBox="-297.473 580.945 320 320"
   xml:space="preserve"
   inkscape:export-filename="C:\Dokumente und Einstellungen\rolf\Eigene Dateien\Eigene Karten\Cardinal_Pillar_Single.png"
   inkscape:export-xdpi="89"
   inkscape:export-ydpi="89"><metadata
   id="metadata2412"><rdf:RDF><cc:Work
       rdf:about=""><dc:format>image/svg+xml</dc:format><dc:type
         rdf:resource="http://purl.org/dc/dcmitype/StillImage" /></cc:Work></rdf:RDF></metadata>
<sodipodi:namedview
   id="base"
   inkscape:current-layer="svg2"
   inkscape:window-y="0"
   inkscape:window-x="0"
   inkscape:window-width="1280"
   inkscape:pageopacity="0.0"
   inkscape:pageshadow="2"
   inkscape:window-height="785"
   gridtolerance="10.0"
   guidetolerance="10.0"
   showgrid="false"
   inkscape:cy="169.81132"
   pagecolor="#ffffff"
   bordercolor="#666666"
   inkscape:cx="200"
   borderopacity="1.0"
   objecttolerance="10.0"
   inkscape:zoom="1.325">
	</sodipodi:namedview>
<defs
   id="defs2405">
	
	
		<inkscape:perspective
   id="perspective9"
   inkscape:persp3d-origin="200 : 133.33333 : 1"
   inkscape:vp_z="400 : 200 : 1"
   inkscape:vp_y="0 : 1000 : 0"
   inkscape:vp_x="0 : 200 : 1"
   sodipodi:type="inkscape:persp3d">
		</inkscape:perspective>
</defs>
<path
   id="path27763_1_"
   d="M -106.74171,648.46887 L -111.39697,661.53719 L -116.83198,659.90042 L -142.18787,713.10149 L -166.97122,738.57841 L -173.44646,738.57841 L -173.5505,742.99938 L -147.70027,742.99938 C -146.62925,747.32423 -142.51326,750.54695 -137.58421,750.54695 C -132.65351,750.54695 -128.53752,747.32657 -127.46815,742.99938 L -107.39165,742.99938 L -107.39165,738.57841 L -113.86689,738.57841 L -115.92157,721.11335 L -102.08646,664.34642 L -108.04159,662.56349 L -103.38633,649.51941 L -106.74171,648.46887 z M -113.29518,666.54439 L -109.16004,667.9365 L -121.8251,721.11256 L -119.77042,738.57762 L -127.46815,738.57762 C -128.53584,734.2481 -132.65184,731.00506 -137.58421,731.00506 C -142.51575,731.00506 -146.63175,734.24888 -147.70027,738.57762 L -159.01303,738.57762 L -137.16812,716.39847 L -113.29518,666.54439 z M -131.35446,740.78655 C -131.35446,744.02256 -134.15061,746.64888 -137.59586,746.64888 C -141.04112,746.64888 -143.83727,744.02256 -143.83727,740.78655 C -143.83727,737.55055 -141.04112,734.92422 -137.59586,734.92422 C -134.15061,734.92422 -131.35446,737.55055 -131.35446,740.78655 z M -78.094522,607.28168 C -78.094522,613.53796 -83.500407,618.61552 -90.161228,618.61552 C -96.822056,618.61552 -102.22793,613.53796 -102.22793,607.28168 C -102.22793,601.0254 -96.822056,595.94783 -90.161228,595.94783 C -83.500407,595.94783 -78.094522,601.0254 -78.094522,607.28168 z M -87.664668,634.63923 C -87.664668,640.89552 -93.070554,645.97308 -99.73137,645.97308 C -106.39219,645.97308 -111.79808,640.89552 -111.79808,634.63923 C -111.79808,628.38295 -106.39219,623.30539 -99.73137,623.30539 C -93.070554,623.30539 -87.664668,628.38295 -87.664668,634.63923 z"
   style="fill:#000407" />
<path
   id="path2382"
   d="M -130.85266,697.45372 L -115.15095,702.17329"
   style="fill:none;stroke:#000000;stroke-width:1" />
<path
   id="path2384"
   d="M -122.98932,699.14835 C -125.12388,698.44409 -127.03625,697.70778 -127.23846,697.51394 C -127.57467,697.19033 -114.13236,668.29215 -113.22278,667.38544 C -113.00475,667.16893 -112.09184,667.30181 -111.19391,667.68091 L -109.56032,668.3711 L -113.3601,684.4464 C -116.36429,697.15438 -117.36457,700.51233 -118.13351,700.47559 C -118.66944,700.45058 -120.85394,699.85262 -122.98932,699.14835 L -122.98932,699.14835 z"
   style="fill-opacity:0.74930001" />
<path
   id="path2386"
   d="M -157.73395,737.98905 C -157.73395,737.83194 -153.07953,732.98731 -147.3907,727.22346 L -137.04828,716.74473 L -132.85074,708.04347 C -129.90146,701.931 -128.34361,699.3422 -127.61379,699.3422 C -125.39684,699.3422 -117.85307,702.14987 -117.91965,702.95027 C -117.95709,703.39893 -118.91244,707.61513 -120.04255,712.31906 C -122.07974,720.79756 -122.0914,720.93122 -121.35658,727.65648 C -120.94881,731.38806 -120.45615,735.30409 -120.26308,736.35931 L -119.91024,738.2759 L -123.73746,738.2759 C -127.2909,738.2759 -127.59131,738.17116 -127.95581,736.80798 C -128.48841,734.81323 -132.04269,731.99461 -135.11346,731.13012 C -139.56065,729.8787 -145.2653,732.4425 -147.05283,736.49376 C -147.83343,738.2634 -147.87254,738.27513 -152.7866,738.27513 C -155.50702,738.27669 -157.73395,738.14772 -157.73395,737.98905 L -157.73395,737.98905 z"
   style="fill:#aa0000;fill-opacity:0.74930001" />
</svg>