<?xml version="1.0" encoding="UTF-8" standalone="no"?>
<!DOCTYPE svg PUBLIC "-//W3C//DTD SVG 1.1//EN" "http://www.w3.org/Graphics/SVG/1.1/DTD/svg11.dtd">
<svg width="100%" height="100%" viewBox="0 0 320 320" version="1.1" xmlns="http://www.w3.org/2000/svg" xmlns:xlink="http://www.w3.org/1999/xlink" xml:space="preserve" xmlns:serif="http://www.serif.com/" style="fill-rule:evenodd;clip-rule:evenodd;">
    <g transform="matrix(0.950166,0.311746,-0.311746,0.950166,200.186,-25.1082)">
        <path d="M20,37.938C26.651,37.938 32,43.286 32,49.938C32,56.589 26.651,61.938 20,61.938C13.349,61.938 8,56.589 8,49.938C8,43.286 13.349,37.938 20,37.938Z" style="fill:rgb(212,0,0);fill-rule:nonzero;"/>
    </g>
    <path id="path13269" d="M197.075,41.894L191.481,58.612L184.95,56.519L154.481,124.581L124.7,157.175L116.919,157.175L116.794,162.831L147.856,162.831C149.144,168.364 154.09,172.487 160.012,172.488C165.937,172.488 170.883,168.367 172.169,162.831L196.294,162.831L196.294,157.175L188.512,157.175L186.044,134.831L202.669,62.206L195.512,59.925L201.106,43.237L197.075,41.894ZM189.2,65.019L194.169,66.8L178.95,134.831L181.419,157.175L172.169,157.175C170.886,151.635 165.94,147.488 160.012,147.488C154.087,147.488 149.141,151.638 147.856,157.175L134.263,157.175L160.512,128.8L189.2,65.019ZM167.5,160C167.5,164.14 164.14,167.5 160,167.5C155.86,167.5 152.5,164.14 152.5,160C152.5,155.86 155.86,152.5 160,152.5C164.14,152.5 167.5,155.86 167.5,160Z" style="fill:rgb(0,4,7);"/>
    <path id="path2381" d="M192,63.396L163.623,150.943" style="fill:none;stroke:black;stroke-width:1px;"/>
    <path id="path2383" d="M136.957,154.777C137.963,153.698 143.71,147.492 149.73,140.985L160.674,129.155L174.886,97.565C182.703,80.191 189.235,65.839 189.402,65.672C189.569,65.505 189.844,65.507 190.013,65.676C190.183,65.846 184.382,84.298 177.122,106.683L163.923,147.381L161.871,147.207C156.475,146.748 150.134,150.292 148.56,154.646L147.803,156.74L135.129,156.74L136.957,154.777Z" style="fill:white;"/>
    <path id="path2385" d="M170.989,153.874C170.158,152.3 168.607,150.466 167.54,149.8C166.474,149.134 165.591,148.351 165.578,148.062C165.565,147.772 171.447,129.364 178.65,107.156C189.825,72.696 191.911,66.777 192.879,66.777C193.678,66.777 193.92,67.09 193.697,67.834C193.523,68.415 190.073,83.698 186.03,101.796L178.679,134.702L179.713,144.664C180.281,150.143 180.879,155.102 181.04,155.683C181.301,156.62 180.834,156.739 176.916,156.738L172.498,156.736L170.989,153.874Z" style="fill:rgb(212,0,0);"/>
    <g transform="matrix(0.950166,0.311746,-0.311746,0.950166,200.122,-25.09)">
        <path d="M20,32.938C10.643,32.938 3,40.581 3,49.938C3,58.59 9.555,65.78 17.938,66.813L17.938,80L22.188,80L22.188,66.813C30.512,65.725 37,58.548 37,49.938C37,40.581 29.357,32.938 20,32.938ZM20,37.938C26.651,37.938 32,43.286 32,49.938C32,56.589 26.651,61.938 20,61.938C13.349,61.938 8,56.589 8,49.938C8,43.286 13.349,37.938 20,37.938Z" style="fill-rule:nonzero;"/>
    </g>
</svg>
