<?xml version="1.0" encoding="UTF-8" standalone="no"?>
<!DOCTYPE svg PUBLIC "-//W3C//DTD SVG 1.1//EN" "http://www.w3.org/Graphics/SVG/1.1/DTD/svg11.dtd">
<svg width="100%" height="100%" viewBox="0 0 320 320" version="1.1" xmlns="http://www.w3.org/2000/svg" xmlns:xlink="http://www.w3.org/1999/xlink" xml:space="preserve" xmlns:serif="http://www.serif.com/" style="fill-rule:evenodd;clip-rule:evenodd;stroke-linejoin:round;stroke-miterlimit:2;">
    <g transform="matrix(0.948612,0.316442,-0.316442,0.948612,201.073,-26.5549)">
        <path d="M20.063,40.563L31.188,62.094L9,62.031L20.063,40.563Z" style="fill:rgb(0,128,0);fill-opacity:0.67;fill-rule:nonzero;"/>
    </g>
    <g id="path27763" transform="matrix(1,0,0,1,-40,-40)">
        <path d="M237.075,81.894L231.481,98.613L224.95,96.519L194.481,164.581L164.7,197.175L156.919,197.175L156.794,202.831L187.856,202.831C189.144,208.364 194.09,212.487 200.012,212.488C205.937,212.488 210.883,208.367 212.169,202.831L236.294,202.831L236.294,197.175L228.512,197.175L226.044,174.831L242.669,102.206L235.512,99.925L241.106,83.238L237.075,81.894ZM229.2,105.019L234.169,106.8L218.95,174.831L221.419,197.175L212.169,197.175C210.886,191.635 205.94,187.488 200.012,187.488C194.087,187.488 189.141,191.638 187.856,197.175L174.262,197.175L200.512,168.8L229.2,105.019ZM207.5,200C207.5,204.14 204.14,207.5 200,207.5C195.86,207.5 192.5,204.14 192.5,200C192.5,195.86 195.86,192.5 200,192.5C204.14,192.5 207.5,195.86 207.5,200Z" style="fill:rgb(0,4,7);"/>
    </g>
    <path id="path2386" d="M147.468,143.366C154.484,135.811 160.714,128.679 161.311,127.517C161.908,126.355 168.433,111.955 175.811,95.517C183.189,79.079 189.292,65.559 189.373,65.471C189.454,65.384 190.486,65.716 191.666,66.209C193.75,67.08 193.797,67.171 193.302,69.387C193.021,70.641 189.623,85.796 185.749,103.064L178.707,134.46L179.702,144.121C180.25,149.434 180.844,154.528 181.023,155.442L181.349,157.102L176.838,157.102C172.502,157.102 172.312,157.042 171.939,155.557C171.343,153.181 167.095,148.952 164.418,148.069C158.316,146.055 151.603,148.699 148.751,154.239L147.278,157.102L134.71,157.102L147.468,143.366Z" style="fill:rgb(0,128,0);fill-opacity:0.75;fill-rule:nonzero;"/>
    <g transform="matrix(0.948612,0.316442,-0.316442,0.948612,201.135,-26.6961)">
        <path d="M20.094,30.125L1.906,67.094L17.938,67.094L17.938,80L22.188,80L22.188,67.094L38.125,67.094L20.125,30.125L20.094,30.125ZM20.063,40.563L31.188,62.094L9,62.031L20.063,40.563Z" style="fill-rule:nonzero;"/>
    </g>
</svg>
