<?xml version="1.0" encoding="UTF-8" standalone="no"?>
<!DOCTYPE svg PUBLIC "-//W3C//DTD SVG 1.1//EN" "http://www.w3.org/Graphics/SVG/1.1/DTD/svg11.dtd">
<svg width="100%" height="100%" viewBox="0 0 300 400" version="1.1" xmlns="http://www.w3.org/2000/svg" xmlns:xlink="http://www.w3.org/1999/xlink" xml:space="preserve" xmlns:serif="http://www.serif.com/" style="fill-rule:evenodd;clip-rule:evenodd;stroke-linejoin:round;stroke-miterlimit:2;">
    <g transform="matrix(0.953834,0.300335,-0.300335,0.953834,179.419,14.0911)">
        <path d="M17.625,27L30,39.375L42.375,27L48.031,32.656L35.656,45.031L48.031,57.406L42.375,63.063L30,50.688L17.625,63.063L11.969,57.406L24.344,45.031L11.969,32.656L17.625,27Z" style="fill:rgb(255,255,0);"/>
    </g>
    <g id="pillar">
        <path d="M181.54,98.569L175.009,96.475L144.54,164.538L114.759,197.132L106.978,197.132L106.853,202.788L137.915,202.788C139.202,208.321 144.148,212.445 150.071,212.445C155.996,212.445 160.942,208.324 162.227,202.788L186.352,202.788L186.352,197.132L178.57,197.132L176.102,174.788L192.727,102.163L185.57,99.882L181.539,98.57L181.54,98.569ZM179.259,104.975L184.228,106.756L169.009,174.787L171.477,197.131L162.227,197.131C160.945,191.592 155.999,187.444 150.071,187.444C144.146,187.444 139.199,191.594 137.915,197.131L124.321,197.131L150.571,168.756L179.259,104.975L179.259,104.975ZM157.559,199.956C157.559,204.096 154.199,207.456 150.059,207.456C145.919,207.456 142.559,204.096 142.559,199.956C142.559,195.816 145.919,192.456 150.059,192.456C154.199,192.456 157.559,195.816 157.559,199.956Z" style="stroke:black;stroke-width:1px;"/>
    </g>
    <g id="pillar1" serif:id="pillar">
        <g transform="matrix(1,0,0,1,0.272949,-0.1875)">
            <path d="M179.259,104.975L184.228,106.756L169.009,174.787L171.477,197.131L162.227,197.131C160.945,191.592 155.999,187.444 150.071,187.444C144.146,187.444 139.199,191.594 137.915,197.131L124.321,197.131L150.571,168.756L179.259,104.975L179.259,104.975ZM157.559,199.956C157.559,204.096 154.199,207.456 150.059,207.456C145.919,207.456 142.559,204.096 142.559,199.956C142.559,195.816 145.919,192.456 150.059,192.456C154.199,192.456 157.559,195.816 157.559,199.956Z" style="fill:rgb(255,255,0);"/>
        </g>
        <path d="M181.54,98.569L175.009,96.475L144.54,164.538L114.759,197.132L106.978,197.132L106.853,202.788L137.915,202.788C139.202,208.321 144.148,212.445 150.071,212.445C155.996,212.445 160.942,208.324 162.227,202.788L186.352,202.788L186.352,197.132L178.57,197.132L176.102,174.788L192.727,102.163L185.57,99.882L181.539,98.57L181.54,98.569ZM179.259,104.975L184.228,106.756L169.009,174.787L171.477,197.131L162.227,197.131C160.945,191.592 155.999,187.444 150.071,187.444C144.146,187.444 139.199,191.594 137.915,197.131L124.321,197.131L150.571,168.756L179.259,104.975L179.259,104.975ZM157.559,199.956C157.559,204.096 154.199,207.456 150.059,207.456C145.919,207.456 142.559,204.096 142.559,199.956C142.559,195.816 145.919,192.456 150.059,192.456C154.199,192.456 157.559,195.816 157.559,199.956Z" style="stroke:black;stroke-width:1px;"/>
    </g>
    <g transform="matrix(0.953834,0.300335,-0.300335,0.953834,179.376,14.0311)">
        <path d="M17.625,24.188L9.156,32.656L21.531,45.031L9.156,57.406L17.625,65.906L27.5,56.031L27.5,80L32.438,80L32.438,55.969L42.375,65.906L50.875,57.406L38.5,45.031L50.875,32.656L42.375,24.188L30,36.563L17.625,24.188ZM17.625,27L30,39.375L42.375,27L48.031,32.656L35.656,45.031L48.031,57.406L42.375,63.063L30,50.688L17.625,63.063L11.969,57.406L24.344,45.031L11.969,32.656L17.625,27Z" style="stroke:black;stroke-width:1px;"/>
    </g>
</svg>
